<svg width="50" height="50" viewBox="0 0 50 50" fill="none" xmlns="http://www.w3.org/2000/svg">
<path d="M2 15.7587C2 6.58624 6.6 2 15.8 2H34.2C43.4 2 48 6.58624 48 15.7587V27.2243C48 36.3968 43.4 40.9831 34.2 40.9831H33.05C32.337 40.9831 31.647 41.327 31.21 41.9003L27.76 46.4865C26.242 48.5045 23.758 48.5045 22.24 46.4865L18.79 41.9003C18.422 41.3958 17.571 40.9831 16.95 40.9831H15.8C6.6 40.9831 2 38.6899 2 27.2243V24.9312" stroke="white" stroke-width="4" stroke-miterlimit="10" stroke-linecap="round" stroke-linejoin="round"/>
<path d="M34.1919 22.6381H34.2125" stroke="white" stroke-width="4" stroke-linecap="round" stroke-linejoin="round"/>
<path d="M24.9871 22.6381H25.0079" stroke="white" stroke-width="4" stroke-linecap="round" stroke-linejoin="round"/>
<path d="M15.7875 22.6381H15.8083" stroke="white" stroke-width="4" stroke-linecap="round" stroke-linejoin="round"/>
</svg>
