<svg width="329" height="37" viewBox="0 0 329 37" fill="none" xmlns="http://www.w3.org/2000/svg">
<path d="M9.37207 25.1963C10.0277 25.1963 10.609 25.0726 11.1162 24.8252C11.6234 24.5654 12.0192 24.2067 12.3037 23.749C12.6006 23.279 12.7552 22.7285 12.7676 22.0977H17.7959C17.7835 23.5078 17.4062 24.7633 16.6641 25.8643C15.9219 26.9528 14.9261 27.8125 13.6768 28.4434C12.4274 29.0618 11.0296 29.3711 9.4834 29.3711C7.9248 29.3711 6.56413 29.1113 5.40137 28.5918C4.25098 28.0723 3.29232 27.3548 2.52539 26.4395C1.75846 25.5117 1.18327 24.4355 0.799805 23.2109C0.416341 21.974 0.224609 20.6504 0.224609 19.2402V18.7021C0.224609 17.2796 0.416341 15.9561 0.799805 14.7314C1.18327 13.4945 1.75846 12.4183 2.52539 11.5029C3.29232 10.5752 4.25098 9.85156 5.40137 9.33203C6.55176 8.8125 7.90007 8.55273 9.44629 8.55273C11.0915 8.55273 12.5326 8.86816 13.7695 9.49902C15.0189 10.1299 15.9961 11.0329 16.7012 12.208C17.4186 13.3708 17.7835 14.75 17.7959 16.3457H12.7676C12.7552 15.6777 12.613 15.0716 12.3408 14.5273C12.0811 13.9831 11.6976 13.5501 11.1904 13.2285C10.6956 12.8945 10.0833 12.7275 9.35352 12.7275C8.57422 12.7275 7.93717 12.8945 7.44238 13.2285C6.94759 13.5501 6.56413 13.9954 6.29199 14.5645C6.01986 15.1211 5.82812 15.7581 5.7168 16.4756C5.61784 17.1807 5.56836 17.9229 5.56836 18.7021V19.2402C5.56836 20.0195 5.61784 20.7679 5.7168 21.4854C5.81576 22.2028 6.0013 22.8398 6.27344 23.3965C6.55794 23.9531 6.94759 24.3923 7.44238 24.7139C7.93717 25.0355 8.5804 25.1963 9.37207 25.1963ZM20.041 19.166V18.7764C20.041 17.3044 20.2513 15.9499 20.6719 14.7129C21.0924 13.4635 21.7048 12.3812 22.5088 11.4658C23.3128 10.5505 24.3024 9.83919 25.4775 9.33203C26.6527 8.8125 28.001 8.55273 29.5225 8.55273C31.0439 8.55273 32.3984 8.8125 33.5859 9.33203C34.7734 9.83919 35.7692 10.5505 36.5732 11.4658C37.3896 12.3812 38.0081 13.4635 38.4287 14.7129C38.8493 15.9499 39.0596 17.3044 39.0596 18.7764V19.166C39.0596 20.6257 38.8493 21.9801 38.4287 23.2295C38.0081 24.4665 37.3896 25.5488 36.5732 26.4766C35.7692 27.3919 34.7796 28.1032 33.6045 28.6104C32.4294 29.1175 31.0811 29.3711 29.5596 29.3711C28.0381 29.3711 26.6836 29.1175 25.4961 28.6104C24.321 28.1032 23.3252 27.3919 22.5088 26.4766C21.7048 25.5488 21.0924 24.4665 20.6719 23.2295C20.2513 21.9801 20.041 20.6257 20.041 19.166ZM25.3848 18.7764V19.166C25.3848 20.0072 25.459 20.7926 25.6074 21.5225C25.7559 22.2523 25.9909 22.8955 26.3125 23.4521C26.6465 23.9964 27.0794 24.4232 27.6113 24.7324C28.1432 25.0417 28.7926 25.1963 29.5596 25.1963C30.3018 25.1963 30.9388 25.0417 31.4707 24.7324C32.0026 24.4232 32.4294 23.9964 32.751 23.4521C33.0726 22.8955 33.3076 22.2523 33.4561 21.5225C33.6169 20.7926 33.6973 20.0072 33.6973 19.166V18.7764C33.6973 17.96 33.6169 17.193 33.4561 16.4756C33.3076 15.7458 33.0664 15.1025 32.7324 14.5459C32.4108 13.9769 31.984 13.5316 31.4521 13.21C30.9202 12.8883 30.277 12.7275 29.5225 12.7275C28.7679 12.7275 28.1247 12.8883 27.5928 13.21C27.0732 13.5316 26.6465 13.9769 26.3125 14.5459C25.9909 15.1025 25.7559 15.7458 25.6074 16.4756C25.459 17.193 25.3848 17.96 25.3848 18.7764ZM47.9844 0.5V29H42.6221V0.5H47.9844ZM61.6406 29.3711C60.082 29.3711 58.6842 29.1237 57.4473 28.6289C56.2103 28.1217 55.1589 27.4229 54.293 26.5322C53.4395 25.6416 52.7839 24.6087 52.3262 23.4336C51.8685 22.2461 51.6396 20.9844 51.6396 19.6484V18.9062C51.6396 17.3848 51.8561 15.9932 52.2891 14.7314C52.722 13.4697 53.3405 12.375 54.1445 11.4473C54.9609 10.5195 55.9505 9.80827 57.1133 9.31348C58.276 8.80632 59.5872 8.55273 61.0469 8.55273C62.4694 8.55273 63.7311 8.78776 64.832 9.25781C65.9329 9.72786 66.8545 10.3958 67.5967 11.2617C68.3512 12.1276 68.9202 13.1667 69.3037 14.3789C69.6872 15.5788 69.8789 16.9147 69.8789 18.3867V20.6133H53.9219V17.0508H64.6279V16.6426C64.6279 15.9004 64.4919 15.2386 64.2197 14.6572C63.96 14.0635 63.5641 13.5934 63.0322 13.2471C62.5003 12.9007 61.82 12.7275 60.9912 12.7275C60.2861 12.7275 59.68 12.8822 59.1729 13.1914C58.6657 13.5007 58.2513 13.9336 57.9297 14.4902C57.6204 15.0469 57.3854 15.7025 57.2246 16.457C57.0762 17.1992 57.002 18.0156 57.002 18.9062V19.6484C57.002 20.4525 57.1133 21.1947 57.3359 21.875C57.571 22.5553 57.8988 23.1429 58.3193 23.6377C58.7523 24.1325 59.2718 24.516 59.8779 24.7881C60.4964 25.0602 61.1953 25.1963 61.9746 25.1963C62.9395 25.1963 63.8363 25.0107 64.665 24.6396C65.5062 24.2562 66.2298 23.681 66.8359 22.9141L69.4336 25.7344C69.013 26.3405 68.4378 26.9219 67.708 27.4785C66.9906 28.0352 66.1247 28.4928 65.1104 28.8516C64.096 29.1979 62.9395 29.3711 61.6406 29.3711ZM81.2158 25.1963C81.8714 25.1963 82.4528 25.0726 82.96 24.8252C83.4671 24.5654 83.863 24.2067 84.1475 23.749C84.4443 23.279 84.599 22.7285 84.6113 22.0977H89.6396C89.6273 23.5078 89.25 24.7633 88.5078 25.8643C87.7656 26.9528 86.7699 27.8125 85.5205 28.4434C84.2712 29.0618 82.8734 29.3711 81.3271 29.3711C79.7686 29.3711 78.4079 29.1113 77.2451 28.5918C76.0947 28.0723 75.1361 27.3548 74.3691 26.4395C73.6022 25.5117 73.027 24.4355 72.6436 23.2109C72.2601 21.974 72.0684 20.6504 72.0684 19.2402V18.7021C72.0684 17.2796 72.2601 15.9561 72.6436 14.7314C73.027 13.4945 73.6022 12.4183 74.3691 11.5029C75.1361 10.5752 76.0947 9.85156 77.2451 9.33203C78.3955 8.8125 79.7438 8.55273 81.29 8.55273C82.9352 8.55273 84.3763 8.86816 85.6133 9.49902C86.8626 10.1299 87.8398 11.0329 88.5449 12.208C89.2624 13.3708 89.6273 14.75 89.6396 16.3457H84.6113C84.599 15.6777 84.4567 15.0716 84.1846 14.5273C83.9248 13.9831 83.5413 13.5501 83.0342 13.2285C82.5394 12.8945 81.9271 12.7275 81.1973 12.7275C80.418 12.7275 79.7809 12.8945 79.2861 13.2285C78.7913 13.5501 78.4079 13.9954 78.1357 14.5645C77.8636 15.1211 77.6719 15.7581 77.5605 16.4756C77.4616 17.1807 77.4121 17.9229 77.4121 18.7021V19.2402C77.4121 20.0195 77.4616 20.7679 77.5605 21.4854C77.6595 22.2028 77.8451 22.8398 78.1172 23.3965C78.4017 23.9531 78.7913 24.3923 79.2861 24.7139C79.7809 25.0355 80.4242 25.1963 81.2158 25.1963ZM98.3789 8.92383V29H93.0166V8.92383H98.3789ZM92.6826 3.69141C92.6826 2.91211 92.9548 2.26888 93.499 1.76172C94.0433 1.25456 94.7731 1.00098 95.6885 1.00098C96.5915 1.00098 97.3151 1.25456 97.8594 1.76172C98.416 2.26888 98.6943 2.91211 98.6943 3.69141C98.6943 4.4707 98.416 5.11393 97.8594 5.62109C97.3151 6.12826 96.5915 6.38184 95.6885 6.38184C94.7731 6.38184 94.0433 6.12826 93.499 5.62109C92.9548 5.11393 92.6826 4.4707 92.6826 3.69141ZM101.941 19.166V18.7764C101.941 17.3044 102.152 15.9499 102.572 14.7129C102.993 13.4635 103.605 12.3812 104.409 11.4658C105.213 10.5505 106.203 9.83919 107.378 9.33203C108.553 8.8125 109.901 8.55273 111.423 8.55273C112.944 8.55273 114.299 8.8125 115.486 9.33203C116.674 9.83919 117.67 10.5505 118.474 11.4658C119.29 12.3812 119.909 13.4635 120.329 14.7129C120.75 15.9499 120.96 17.3044 120.96 18.7764V19.166C120.96 20.6257 120.75 21.9801 120.329 23.2295C119.909 24.4665 119.29 25.5488 118.474 26.4766C117.67 27.3919 116.68 28.1032 115.505 28.6104C114.33 29.1175 112.981 29.3711 111.46 29.3711C109.938 29.3711 108.584 29.1175 107.396 28.6104C106.221 28.1032 105.226 27.3919 104.409 26.4766C103.605 25.5488 102.993 24.4665 102.572 23.2295C102.152 21.9801 101.941 20.6257 101.941 19.166ZM107.285 18.7764V19.166C107.285 20.0072 107.359 20.7926 107.508 21.5225C107.656 22.2523 107.891 22.8955 108.213 23.4521C108.547 23.9964 108.98 24.4232 109.512 24.7324C110.044 25.0417 110.693 25.1963 111.46 25.1963C112.202 25.1963 112.839 25.0417 113.371 24.7324C113.903 24.4232 114.33 23.9964 114.651 23.4521C114.973 22.8955 115.208 22.2523 115.356 21.5225C115.517 20.7926 115.598 20.0072 115.598 19.166V18.7764C115.598 17.96 115.517 17.193 115.356 16.4756C115.208 15.7458 114.967 15.1025 114.633 14.5459C114.311 13.9769 113.884 13.5316 113.353 13.21C112.821 12.8883 112.177 12.7275 111.423 12.7275C110.668 12.7275 110.025 12.8883 109.493 13.21C108.974 13.5316 108.547 13.9769 108.213 14.5459C107.891 15.1025 107.656 15.7458 107.508 16.4756C107.359 17.193 107.285 17.96 107.285 18.7764ZM129.477 13.21V29H124.133V8.92383H129.143L129.477 13.21ZM128.697 18.2568H127.25C127.25 16.7725 127.442 15.4365 127.825 14.249C128.209 13.0492 128.747 12.0286 129.439 11.1875C130.132 10.334 130.955 9.68457 131.907 9.23926C132.872 8.78158 133.948 8.55273 135.136 8.55273C136.076 8.55273 136.936 8.6888 137.715 8.96094C138.494 9.23307 139.162 9.66602 139.719 10.2598C140.288 10.8535 140.721 11.639 141.018 12.6162C141.327 13.5934 141.481 14.7871 141.481 16.1973V29H136.101V16.1787C136.101 15.2881 135.977 14.5954 135.729 14.1006C135.482 13.6058 135.117 13.2594 134.635 13.0615C134.165 12.8512 133.583 12.7461 132.891 12.7461C132.173 12.7461 131.549 12.8883 131.017 13.1729C130.497 13.4574 130.064 13.8532 129.718 14.3604C129.384 14.8551 129.13 15.4365 128.957 16.1045C128.784 16.7725 128.697 17.4899 128.697 18.2568ZM156.381 24.4727V15.5293C156.381 14.8861 156.276 14.3356 156.065 13.8779C155.855 13.4079 155.527 13.043 155.082 12.7832C154.649 12.5234 154.086 12.3936 153.394 12.3936C152.8 12.3936 152.286 12.4987 151.854 12.709C151.421 12.9069 151.087 13.1976 150.852 13.5811C150.617 13.9521 150.499 14.3913 150.499 14.8984H145.155C145.155 14.0449 145.353 13.2347 145.749 12.4678C146.145 11.7008 146.72 11.0267 147.475 10.4453C148.229 9.85156 149.126 9.3877 150.165 9.05371C151.216 8.71973 152.392 8.55273 153.69 8.55273C155.249 8.55273 156.634 8.8125 157.847 9.33203C159.059 9.85156 160.011 10.6309 160.704 11.6699C161.409 12.709 161.762 14.0078 161.762 15.5664V24.1572C161.762 25.2581 161.83 26.1611 161.966 26.8662C162.102 27.5589 162.3 28.165 162.56 28.6846V29H157.16C156.9 28.4557 156.702 27.7754 156.566 26.959C156.443 26.1302 156.381 25.3014 156.381 24.4727ZM157.086 16.7725L157.123 19.7969H154.136C153.431 19.7969 152.818 19.8773 152.299 20.0381C151.779 20.1989 151.353 20.4277 151.019 20.7246C150.685 21.0091 150.437 21.3431 150.276 21.7266C150.128 22.11 150.054 22.5306 150.054 22.9883C150.054 23.446 150.159 23.8604 150.369 24.2314C150.579 24.5902 150.882 24.8747 151.278 25.085C151.674 25.2829 152.138 25.3818 152.67 25.3818C153.474 25.3818 154.173 25.221 154.767 24.8994C155.36 24.5778 155.818 24.182 156.14 23.7119C156.474 23.2419 156.647 22.7965 156.659 22.376L158.069 24.6396C157.871 25.1468 157.599 25.6725 157.253 26.2168C156.919 26.7611 156.492 27.2744 155.973 27.7568C155.453 28.2269 154.828 28.6165 154.099 28.9258C153.369 29.2227 152.503 29.3711 151.501 29.3711C150.227 29.3711 149.07 29.1175 148.031 28.6104C147.005 28.0908 146.188 27.3796 145.582 26.4766C144.988 25.5612 144.691 24.5221 144.691 23.3594C144.691 22.3079 144.889 21.374 145.285 20.5576C145.681 19.7412 146.262 19.0547 147.029 18.498C147.809 17.929 148.78 17.5023 149.942 17.2178C151.105 16.9209 152.453 16.7725 153.987 16.7725H157.086ZM172.412 25.1035L176.865 8.92383H182.45L175.678 29H172.301L172.412 25.1035ZM169.351 8.92383L173.822 25.1221L173.915 29H170.52L163.747 8.92383H169.351ZM193.824 29.3711C192.266 29.3711 190.868 29.1237 189.631 28.6289C188.394 28.1217 187.342 27.4229 186.477 26.5322C185.623 25.6416 184.967 24.6087 184.51 23.4336C184.052 22.2461 183.823 20.9844 183.823 19.6484V18.9062C183.823 17.3848 184.04 15.9932 184.473 14.7314C184.906 13.4697 185.524 12.375 186.328 11.4473C187.145 10.5195 188.134 9.80827 189.297 9.31348C190.46 8.80632 191.771 8.55273 193.23 8.55273C194.653 8.55273 195.915 8.78776 197.016 9.25781C198.117 9.72786 199.038 10.3958 199.78 11.2617C200.535 12.1276 201.104 13.1667 201.487 14.3789C201.871 15.5788 202.062 16.9147 202.062 18.3867V20.6133H186.105V17.0508H196.812V16.6426C196.812 15.9004 196.675 15.2386 196.403 14.6572C196.144 14.0635 195.748 13.5934 195.216 13.2471C194.684 12.9007 194.004 12.7275 193.175 12.7275C192.47 12.7275 191.864 12.8822 191.356 13.1914C190.849 13.5007 190.435 13.9336 190.113 14.4902C189.804 15.0469 189.569 15.7025 189.408 16.457C189.26 17.1992 189.186 18.0156 189.186 18.9062V19.6484C189.186 20.4525 189.297 21.1947 189.52 21.875C189.755 22.5553 190.082 23.1429 190.503 23.6377C190.936 24.1325 191.455 24.516 192.062 24.7881C192.68 25.0602 193.379 25.1963 194.158 25.1963C195.123 25.1963 196.02 25.0107 196.849 24.6396C197.69 24.2562 198.413 23.681 199.02 22.9141L201.617 25.7344C201.197 26.3405 200.621 26.9219 199.892 27.4785C199.174 28.0352 198.308 28.4928 197.294 28.8516C196.28 29.1979 195.123 29.3711 193.824 29.3711ZM210.746 0.5V29H205.384V0.5H210.746ZM215.422 26.4209C215.422 25.6292 215.694 24.9674 216.238 24.4355C216.795 23.9036 217.531 23.6377 218.446 23.6377C219.362 23.6377 220.091 23.9036 220.636 24.4355C221.192 24.9674 221.471 25.6292 221.471 26.4209C221.471 27.2126 221.192 27.8743 220.636 28.4062C220.091 28.9382 219.362 29.2041 218.446 29.2041C217.531 29.2041 216.795 28.9382 216.238 28.4062C215.694 27.8743 215.422 27.2126 215.422 26.4209ZM238.04 24.6211V0.5H243.421V29H238.578L238.04 24.6211ZM225.349 19.2031V18.8135C225.349 17.2796 225.522 15.888 225.868 14.6387C226.215 13.377 226.722 12.2946 227.39 11.3916C228.058 10.4886 228.88 9.78971 229.857 9.29492C230.835 8.80013 231.948 8.55273 233.197 8.55273C234.372 8.55273 235.399 8.80013 236.277 9.29492C237.168 9.78971 237.923 10.4948 238.541 11.4102C239.172 12.3132 239.679 13.3831 240.062 14.6201C240.446 15.8447 240.724 17.1868 240.897 18.6465V19.5C240.724 20.8978 240.446 22.1966 240.062 23.3965C239.679 24.5964 239.172 25.6478 238.541 26.5508C237.923 27.4414 237.168 28.1341 236.277 28.6289C235.387 29.1237 234.348 29.3711 233.16 29.3711C231.911 29.3711 230.798 29.1175 229.82 28.6104C228.855 28.1032 228.039 27.3919 227.371 26.4766C226.715 25.5612 226.215 24.485 225.868 23.248C225.522 22.0111 225.349 20.6628 225.349 19.2031ZM230.692 18.8135V19.2031C230.692 20.0319 230.754 20.805 230.878 21.5225C231.014 22.2399 231.23 22.877 231.527 23.4336C231.837 23.9779 232.232 24.4046 232.715 24.7139C233.21 25.0107 233.81 25.1592 234.515 25.1592C235.43 25.1592 236.185 24.9551 236.778 24.5469C237.372 24.1263 237.824 23.5511 238.133 22.8213C238.454 22.0915 238.64 21.2503 238.689 20.2979V17.8672C238.652 17.0879 238.541 16.389 238.355 15.7705C238.182 15.1396 237.923 14.6016 237.576 14.1562C237.242 13.7109 236.822 13.3646 236.314 13.1172C235.82 12.8698 235.232 12.7461 234.552 12.7461C233.859 12.7461 233.265 12.9069 232.771 13.2285C232.276 13.5378 231.874 13.9645 231.564 14.5088C231.268 15.0531 231.045 15.6963 230.896 16.4385C230.76 17.1683 230.692 17.96 230.692 18.8135ZM253.236 8.92383V29H247.874V8.92383H253.236ZM247.54 3.69141C247.54 2.91211 247.812 2.26888 248.356 1.76172C248.901 1.25456 249.631 1.00098 250.546 1.00098C251.449 1.00098 252.173 1.25456 252.717 1.76172C253.273 2.26888 253.552 2.91211 253.552 3.69141C253.552 4.4707 253.273 5.11393 252.717 5.62109C252.173 6.12826 251.449 6.38184 250.546 6.38184C249.631 6.38184 248.901 6.12826 248.356 5.62109C247.812 5.11393 247.54 4.4707 247.54 3.69141ZM270.362 8.92383H275.205V28.332C275.205 30.1628 274.797 31.7152 273.98 32.9893C273.176 34.2757 272.051 35.2467 270.604 35.9023C269.156 36.5703 267.474 36.9043 265.557 36.9043C264.715 36.9043 263.825 36.793 262.885 36.5703C261.957 36.3477 261.066 36.0013 260.213 35.5312C259.372 35.0612 258.667 34.4674 258.098 33.75L260.454 30.5957C261.073 31.3132 261.79 31.8698 262.606 32.2656C263.423 32.6738 264.326 32.8779 265.315 32.8779C266.28 32.8779 267.097 32.6986 267.765 32.3398C268.433 31.9935 268.946 31.4801 269.305 30.7998C269.663 30.1318 269.843 29.3216 269.843 28.3691V13.5625L270.362 8.92383ZM256.854 19.2031V18.8135C256.854 17.2796 257.04 15.888 257.411 14.6387C257.795 13.377 258.333 12.2946 259.025 11.3916C259.73 10.4886 260.584 9.78971 261.586 9.29492C262.588 8.80013 263.72 8.55273 264.981 8.55273C266.317 8.55273 267.437 8.80013 268.34 9.29492C269.243 9.78971 269.985 10.4948 270.566 11.4102C271.148 12.3132 271.599 13.3831 271.921 14.6201C272.255 15.8447 272.515 17.1868 272.7 18.6465V19.5C272.515 20.8978 272.236 22.1966 271.865 23.3965C271.494 24.5964 271.006 25.6478 270.399 26.5508C269.793 27.4414 269.039 28.1341 268.136 28.6289C267.245 29.1237 266.181 29.3711 264.944 29.3711C263.707 29.3711 262.588 29.1175 261.586 28.6104C260.596 28.1032 259.749 27.3919 259.044 26.4766C258.339 25.5612 257.795 24.485 257.411 23.248C257.04 22.0111 256.854 20.6628 256.854 19.2031ZM262.198 18.8135V19.2031C262.198 20.0319 262.279 20.805 262.439 21.5225C262.6 22.2399 262.848 22.877 263.182 23.4336C263.528 23.9779 263.955 24.4046 264.462 24.7139C264.981 25.0107 265.594 25.1592 266.299 25.1592C267.276 25.1592 268.074 24.9551 268.692 24.5469C269.311 24.1263 269.775 23.5511 270.084 22.8213C270.393 22.0915 270.573 21.2503 270.622 20.2979V17.8672C270.597 17.0879 270.492 16.389 270.307 15.7705C270.121 15.1396 269.861 14.6016 269.527 14.1562C269.193 13.7109 268.76 13.3646 268.229 13.1172C267.697 12.8698 267.066 12.7461 266.336 12.7461C265.631 12.7461 265.019 12.9069 264.499 13.2285C263.992 13.5378 263.565 13.9645 263.219 14.5088C262.885 15.0531 262.631 15.6963 262.458 16.4385C262.285 17.1683 262.198 17.96 262.198 18.8135ZM285.002 8.92383V29H279.64V8.92383H285.002ZM279.306 3.69141C279.306 2.91211 279.578 2.26888 280.122 1.76172C280.666 1.25456 281.396 1.00098 282.312 1.00098C283.215 1.00098 283.938 1.25456 284.482 1.76172C285.039 2.26888 285.317 2.91211 285.317 3.69141C285.317 4.4707 285.039 5.11393 284.482 5.62109C283.938 6.12826 283.215 6.38184 282.312 6.38184C281.396 6.38184 280.666 6.12826 280.122 5.62109C279.578 5.11393 279.306 4.4707 279.306 3.69141ZM299.252 8.92383V12.709H287.562V8.92383H299.252ZM290.457 3.96973H295.801V22.9512C295.801 23.5326 295.875 23.9779 296.023 24.2871C296.184 24.5964 296.419 24.8128 296.729 24.9365C297.038 25.0479 297.427 25.1035 297.897 25.1035C298.231 25.1035 298.528 25.0911 298.788 25.0664C299.06 25.0293 299.289 24.9922 299.475 24.9551L299.493 28.8887C299.035 29.0371 298.541 29.1546 298.009 29.2412C297.477 29.3278 296.889 29.3711 296.246 29.3711C295.071 29.3711 294.044 29.1794 293.166 28.7959C292.3 28.4001 291.632 27.7692 291.162 26.9033C290.692 26.0374 290.457 24.8994 290.457 23.4893V3.96973ZM313.131 24.4727V15.5293C313.131 14.8861 313.026 14.3356 312.815 13.8779C312.605 13.4079 312.277 13.043 311.832 12.7832C311.399 12.5234 310.836 12.3936 310.144 12.3936C309.55 12.3936 309.036 12.4987 308.604 12.709C308.171 12.9069 307.837 13.1976 307.602 13.5811C307.367 13.9521 307.249 14.3913 307.249 14.8984H301.905C301.905 14.0449 302.103 13.2347 302.499 12.4678C302.895 11.7008 303.47 11.0267 304.225 10.4453C304.979 9.85156 305.876 9.3877 306.915 9.05371C307.966 8.71973 309.142 8.55273 310.44 8.55273C311.999 8.55273 313.384 8.8125 314.597 9.33203C315.809 9.85156 316.761 10.6309 317.454 11.6699C318.159 12.709 318.512 14.0078 318.512 15.5664V24.1572C318.512 25.2581 318.58 26.1611 318.716 26.8662C318.852 27.5589 319.05 28.165 319.31 28.6846V29H313.91C313.65 28.4557 313.452 27.7754 313.316 26.959C313.193 26.1302 313.131 25.3014 313.131 24.4727ZM313.836 16.7725L313.873 19.7969H310.886C310.181 19.7969 309.568 19.8773 309.049 20.0381C308.529 20.1989 308.103 20.4277 307.769 20.7246C307.435 21.0091 307.187 21.3431 307.026 21.7266C306.878 22.11 306.804 22.5306 306.804 22.9883C306.804 23.446 306.909 23.8604 307.119 24.2314C307.329 24.5902 307.632 24.8747 308.028 25.085C308.424 25.2829 308.888 25.3818 309.42 25.3818C310.224 25.3818 310.923 25.221 311.517 24.8994C312.11 24.5778 312.568 24.182 312.89 23.7119C313.224 23.2419 313.397 22.7965 313.409 22.376L314.819 24.6396C314.621 25.1468 314.349 25.6725 314.003 26.2168C313.669 26.7611 313.242 27.2744 312.723 27.7568C312.203 28.2269 311.578 28.6165 310.849 28.9258C310.119 29.2227 309.253 29.3711 308.251 29.3711C306.977 29.3711 305.82 29.1175 304.781 28.6104C303.755 28.0908 302.938 27.3796 302.332 26.4766C301.738 25.5612 301.441 24.5221 301.441 23.3594C301.441 22.3079 301.639 21.374 302.035 20.5576C302.431 19.7412 303.012 19.0547 303.779 18.498C304.559 17.929 305.53 17.5023 306.692 17.2178C307.855 16.9209 309.203 16.7725 310.737 16.7725H313.836ZM328.271 0.5V29H322.909V0.5H328.271Z" fill="white"/>
</svg>
