<svg width="268" height="31" viewBox="0 0 268 31" fill="none" xmlns="http://www.w3.org/2000/svg">
<path d="M7.46143 20.897C7.99626 20.897 8.47054 20.7961 8.88428 20.5942C9.29801 20.3823 9.62093 20.0897 9.85303 19.7163C10.0952 19.3328 10.2214 18.8838 10.2314 18.3691H14.3335C14.3234 19.5195 14.0156 20.5438 13.4102 21.4419C12.8047 22.3299 11.9924 23.0312 10.9731 23.5459C9.95394 24.0505 8.81364 24.3027 7.55225 24.3027C6.28076 24.3027 5.17074 24.0908 4.22217 23.667C3.28369 23.2432 2.50163 22.6579 1.87598 21.9111C1.25033 21.1543 0.781087 20.2764 0.468262 19.2773C0.155436 18.2682 -0.000976562 17.1885 -0.000976562 16.0381V15.5991C-0.000976562 14.4386 0.155436 13.3589 0.468262 12.3599C0.781087 11.3507 1.25033 10.4728 1.87598 9.72607C2.50163 8.96924 3.28369 8.37891 4.22217 7.95508C5.16064 7.53125 6.26058 7.31934 7.52197 7.31934C8.8641 7.31934 10.0397 7.57666 11.0488 8.09131C12.068 8.60596 12.8652 9.34261 13.4404 10.3013C14.0257 11.2498 14.3234 12.375 14.3335 13.6768H10.2314C10.2214 13.1318 10.1053 12.6374 9.8833 12.1934C9.67139 11.7493 9.35856 11.3962 8.94482 11.1338C8.54118 10.8613 8.04167 10.7251 7.44629 10.7251C6.81055 10.7251 6.29085 10.8613 5.88721 11.1338C5.48356 11.3962 5.17074 11.7594 4.94873 12.2236C4.72673 12.6777 4.57031 13.1974 4.47949 13.7827C4.39876 14.3579 4.3584 14.9634 4.3584 15.5991V16.0381C4.3584 16.6738 4.39876 17.2843 4.47949 17.8696C4.56022 18.4549 4.71159 18.9746 4.93359 19.4287C5.16569 19.8828 5.48356 20.241 5.88721 20.5034C6.29085 20.7658 6.81559 20.897 7.46143 20.897ZM16.165 15.9775V15.6597C16.165 14.4588 16.3366 13.3538 16.6797 12.3447C17.0228 11.3255 17.5223 10.4425 18.1782 9.6958C18.8341 8.94906 19.6414 8.36882 20.6001 7.95508C21.5588 7.53125 22.6587 7.31934 23.8999 7.31934C25.1411 7.31934 26.2461 7.53125 27.2148 7.95508C28.1836 8.36882 28.9959 8.94906 29.6519 9.6958C30.3179 10.4425 30.8224 11.3255 31.1655 12.3447C31.5086 13.3538 31.6802 14.4588 31.6802 15.6597V15.9775C31.6802 17.1683 31.5086 18.2733 31.1655 19.2925C30.8224 20.3016 30.3179 21.1846 29.6519 21.9414C28.9959 22.6882 28.1886 23.2684 27.23 23.6821C26.2713 24.0959 25.1714 24.3027 23.9302 24.3027C22.689 24.3027 21.584 24.0959 20.6152 23.6821C19.6566 23.2684 18.8442 22.6882 18.1782 21.9414C17.5223 21.1846 17.0228 20.3016 16.6797 19.2925C16.3366 18.2733 16.165 17.1683 16.165 15.9775ZM20.5244 15.6597V15.9775C20.5244 16.6637 20.585 17.3045 20.7061 17.8999C20.8271 18.4953 21.0189 19.02 21.2812 19.4741C21.5537 19.9181 21.9069 20.2663 22.3408 20.5186C22.7747 20.7708 23.3045 20.897 23.9302 20.897C24.5356 20.897 25.0553 20.7708 25.4893 20.5186C25.9232 20.2663 26.2713 19.9181 26.5337 19.4741C26.7961 19.02 26.9878 18.4953 27.1089 17.8999C27.2401 17.3045 27.3057 16.6637 27.3057 15.9775V15.6597C27.3057 14.9937 27.2401 14.368 27.1089 13.7827C26.9878 13.1873 26.791 12.6626 26.5186 12.2085C26.2562 11.7443 25.908 11.381 25.4741 11.1187C25.0402 10.8563 24.5155 10.7251 23.8999 10.7251C23.2843 10.7251 22.7596 10.8563 22.3257 11.1187C21.9019 11.381 21.5537 11.7443 21.2812 12.2085C21.0189 12.6626 20.8271 13.1873 20.7061 13.7827C20.585 14.368 20.5244 14.9937 20.5244 15.6597ZM38.9609 0.75V24H34.5864V0.75H38.9609ZM50.1016 24.3027C48.8301 24.3027 47.6898 24.1009 46.6807 23.6973C45.6715 23.2835 44.8138 22.7134 44.1074 21.9868C43.4111 21.2603 42.8763 20.4176 42.5029 19.459C42.1296 18.4902 41.9429 17.4609 41.9429 16.3711V15.7656C41.9429 14.5244 42.1195 13.3892 42.4727 12.3599C42.8258 11.3306 43.3304 10.4375 43.9863 9.68066C44.6523 8.92383 45.4596 8.34359 46.4082 7.93994C47.3568 7.5262 48.4264 7.31934 49.6172 7.31934C50.7777 7.31934 51.807 7.51107 52.7051 7.89453C53.6032 8.27799 54.355 8.82292 54.9604 9.5293C55.576 10.2357 56.0402 11.0833 56.353 12.0723C56.6659 13.0511 56.8223 14.141 56.8223 15.3418V17.1582H43.8047V14.252H52.5386V13.9189C52.5386 13.3135 52.4276 12.7736 52.2056 12.2993C51.9937 11.8149 51.6707 11.4315 51.2368 11.1489C50.8029 10.8664 50.2479 10.7251 49.5718 10.7251C48.9966 10.7251 48.5021 10.8512 48.0884 11.1035C47.6746 11.3558 47.3366 11.709 47.0742 12.1631C46.8219 12.6172 46.6302 13.152 46.499 13.7676C46.3779 14.373 46.3174 15.0391 46.3174 15.7656V16.3711C46.3174 17.027 46.4082 17.6325 46.5898 18.1875C46.7816 18.7425 47.049 19.2218 47.3921 19.6255C47.7453 20.0291 48.1691 20.342 48.6636 20.564C49.1681 20.786 49.7383 20.897 50.374 20.897C51.1611 20.897 51.8927 20.7456 52.5688 20.4429C53.255 20.13 53.8454 19.6608 54.3398 19.0352L56.459 21.3359C56.1159 21.8304 55.6466 22.3047 55.0513 22.7588C54.466 23.2129 53.7596 23.5863 52.9321 23.8789C52.1047 24.1615 51.1611 24.3027 50.1016 24.3027ZM66.0708 20.897C66.6056 20.897 67.0799 20.7961 67.4937 20.5942C67.9074 20.3823 68.2303 20.0897 68.4624 19.7163C68.7046 19.3328 68.8307 18.8838 68.8408 18.3691H72.9429C72.9328 19.5195 72.625 20.5438 72.0195 21.4419C71.4141 22.3299 70.6017 23.0312 69.5825 23.5459C68.5633 24.0505 67.423 24.3027 66.1616 24.3027C64.8901 24.3027 63.7801 24.0908 62.8315 23.667C61.8931 23.2432 61.111 22.6579 60.4854 21.9111C59.8597 21.1543 59.3905 20.2764 59.0776 19.2773C58.7648 18.2682 58.6084 17.1885 58.6084 16.0381V15.5991C58.6084 14.4386 58.7648 13.3589 59.0776 12.3599C59.3905 11.3507 59.8597 10.4728 60.4854 9.72607C61.111 8.96924 61.8931 8.37891 62.8315 7.95508C63.77 7.53125 64.87 7.31934 66.1313 7.31934C67.4735 7.31934 68.6491 7.57666 69.6582 8.09131C70.6774 8.60596 71.4746 9.34261 72.0498 10.3013C72.6351 11.2498 72.9328 12.375 72.9429 13.6768H68.8408C68.8307 13.1318 68.7147 12.6374 68.4927 12.1934C68.2808 11.7493 67.9679 11.3962 67.5542 11.1338C67.1506 10.8613 66.651 10.7251 66.0557 10.7251C65.4199 10.7251 64.9002 10.8613 64.4966 11.1338C64.0929 11.3962 63.7801 11.7594 63.5581 12.2236C63.3361 12.6777 63.1797 13.1974 63.0889 13.7827C63.0081 14.3579 62.9678 14.9634 62.9678 15.5991V16.0381C62.9678 16.6738 63.0081 17.2843 63.0889 17.8696C63.1696 18.4549 63.321 18.9746 63.543 19.4287C63.7751 19.8828 64.0929 20.241 64.4966 20.5034C64.9002 20.7658 65.425 20.897 66.0708 20.897ZM80.0723 7.62207V24H75.6978V7.62207H80.0723ZM75.4253 3.35352C75.4253 2.71777 75.6473 2.19303 76.0913 1.7793C76.5353 1.36556 77.1307 1.15869 77.8774 1.15869C78.6141 1.15869 79.2044 1.36556 79.6484 1.7793C80.1025 2.19303 80.3296 2.71777 80.3296 3.35352C80.3296 3.98926 80.1025 4.514 79.6484 4.92773C79.2044 5.34147 78.6141 5.54834 77.8774 5.54834C77.1307 5.54834 76.5353 5.34147 76.0913 4.92773C75.6473 4.514 75.4253 3.98926 75.4253 3.35352ZM82.9785 15.9775V15.6597C82.9785 14.4588 83.1501 13.3538 83.4932 12.3447C83.8363 11.3255 84.3358 10.4425 84.9917 9.6958C85.6476 8.94906 86.4549 8.36882 87.4136 7.95508C88.3722 7.53125 89.4722 7.31934 90.7134 7.31934C91.9546 7.31934 93.0596 7.53125 94.0283 7.95508C94.9971 8.36882 95.8094 8.94906 96.4653 9.6958C97.1313 10.4425 97.6359 11.3255 97.979 12.3447C98.3221 13.3538 98.4937 14.4588 98.4937 15.6597V15.9775C98.4937 17.1683 98.3221 18.2733 97.979 19.2925C97.6359 20.3016 97.1313 21.1846 96.4653 21.9414C95.8094 22.6882 95.0021 23.2684 94.0435 23.6821C93.0848 24.0959 91.9849 24.3027 90.7437 24.3027C89.5024 24.3027 88.3975 24.0959 87.4287 23.6821C86.4701 23.2684 85.6577 22.6882 84.9917 21.9414C84.3358 21.1846 83.8363 20.3016 83.4932 19.2925C83.1501 18.2733 82.9785 17.1683 82.9785 15.9775ZM87.3379 15.6597V15.9775C87.3379 16.6637 87.3984 17.3045 87.5195 17.8999C87.6406 18.4953 87.8324 19.02 88.0947 19.4741C88.3672 19.9181 88.7204 20.2663 89.1543 20.5186C89.5882 20.7708 90.118 20.897 90.7437 20.897C91.3491 20.897 91.8688 20.7708 92.3027 20.5186C92.7367 20.2663 93.0848 19.9181 93.3472 19.4741C93.6095 19.02 93.8013 18.4953 93.9224 17.8999C94.0535 17.3045 94.1191 16.6637 94.1191 15.9775V15.6597C94.1191 14.9937 94.0535 14.368 93.9224 13.7827C93.8013 13.1873 93.6045 12.6626 93.332 12.2085C93.0697 11.7443 92.7215 11.381 92.2876 11.1187C91.8537 10.8563 91.3289 10.7251 90.7134 10.7251C90.0978 10.7251 89.5731 10.8563 89.1392 11.1187C88.7153 11.381 88.3672 11.7443 88.0947 12.2085C87.8324 12.6626 87.6406 13.1873 87.5195 13.7827C87.3984 14.368 87.3379 14.9937 87.3379 15.6597ZM105.441 11.1187V24H101.082V7.62207H105.169L105.441 11.1187ZM104.806 15.2358H103.625C103.625 14.0249 103.781 12.9351 104.094 11.9663C104.407 10.9875 104.846 10.1549 105.411 9.46875C105.976 8.77246 106.647 8.24268 107.424 7.87939C108.211 7.50602 109.089 7.31934 110.058 7.31934C110.825 7.31934 111.526 7.43034 112.162 7.65234C112.798 7.87435 113.343 8.22754 113.797 8.71191C114.261 9.19629 114.614 9.83708 114.856 10.6343C115.109 11.4315 115.235 12.4053 115.235 13.5557V24H110.845V13.5405C110.845 12.814 110.744 12.2489 110.542 11.8452C110.341 11.4416 110.043 11.159 109.649 10.9976C109.266 10.826 108.792 10.7402 108.227 10.7402C107.641 10.7402 107.132 10.8563 106.698 11.0884C106.274 11.3205 105.921 11.6434 105.638 12.0571C105.366 12.4608 105.159 12.9351 105.018 13.48C104.876 14.0249 104.806 14.6102 104.806 15.2358ZM127.39 20.3066V13.0107C127.39 12.486 127.304 12.0369 127.132 11.6636C126.961 11.2801 126.693 10.9824 126.33 10.7705C125.977 10.5586 125.518 10.4526 124.953 10.4526C124.468 10.4526 124.049 10.5384 123.696 10.71C123.343 10.8714 123.071 11.1086 122.879 11.4214C122.687 11.7241 122.591 12.0824 122.591 12.4961H118.232C118.232 11.7998 118.393 11.1388 118.716 10.5132C119.039 9.88753 119.508 9.33757 120.124 8.86328C120.74 8.37891 121.471 8.00049 122.319 7.72803C123.177 7.45557 124.135 7.31934 125.195 7.31934C126.466 7.31934 127.597 7.53125 128.585 7.95508C129.574 8.37891 130.351 9.01465 130.917 9.8623C131.492 10.71 131.779 11.7695 131.779 13.041V20.0493C131.779 20.9474 131.835 21.6841 131.946 22.2593C132.057 22.8244 132.218 23.3188 132.43 23.7427V24H128.025C127.813 23.556 127.652 23.001 127.541 22.335C127.44 21.6589 127.39 20.9827 127.39 20.3066ZM127.965 14.0249L127.995 16.4922H125.558C124.983 16.4922 124.483 16.5578 124.06 16.689C123.636 16.8201 123.288 17.0068 123.015 17.249C122.743 17.4811 122.541 17.7536 122.41 18.0664C122.289 18.3792 122.228 18.7223 122.228 19.0957C122.228 19.4691 122.314 19.8071 122.485 20.1099C122.657 20.4025 122.904 20.6346 123.227 20.8062C123.55 20.9676 123.928 21.0483 124.362 21.0483C125.018 21.0483 125.588 20.9172 126.073 20.6548C126.557 20.3924 126.931 20.0695 127.193 19.686C127.465 19.3026 127.607 18.9393 127.617 18.5962L128.767 20.4429C128.606 20.8566 128.384 21.2855 128.101 21.7295C127.829 22.1735 127.48 22.5923 127.057 22.9858C126.633 23.3693 126.123 23.6872 125.528 23.9395C124.932 24.1816 124.226 24.3027 123.409 24.3027C122.369 24.3027 121.426 24.0959 120.578 23.6821C119.741 23.2583 119.075 22.6781 118.58 21.9414C118.096 21.1947 117.854 20.347 117.854 19.3984C117.854 18.5407 118.015 17.7788 118.338 17.1128C118.661 16.4468 119.135 15.8867 119.761 15.4326C120.396 14.9684 121.189 14.6203 122.137 14.3882C123.086 14.146 124.186 14.0249 125.437 14.0249H127.965ZM123.106 5.41211L126.073 0.75H130.811L126.648 5.41211H123.106ZM140.468 20.8213L144.101 7.62207H148.657L143.132 24H140.377L140.468 20.8213ZM137.97 7.62207L141.618 20.8364L141.694 24H138.924L133.399 7.62207H137.97ZM157.936 24.3027C156.664 24.3027 155.524 24.1009 154.515 23.6973C153.506 23.2835 152.648 22.7134 151.941 21.9868C151.245 21.2603 150.71 20.4176 150.337 19.459C149.964 18.4902 149.777 17.4609 149.777 16.3711V15.7656C149.777 14.5244 149.953 13.3892 150.307 12.3599C150.66 11.3306 151.164 10.4375 151.82 9.68066C152.486 8.92383 153.294 8.34359 154.242 7.93994C155.191 7.5262 156.26 7.31934 157.451 7.31934C158.612 7.31934 159.641 7.51107 160.539 7.89453C161.437 8.27799 162.189 8.82292 162.794 9.5293C163.41 10.2357 163.874 11.0833 164.187 12.0723C164.5 13.0511 164.656 14.141 164.656 15.3418V17.1582H151.639V14.252H160.373V13.9189C160.373 13.3135 160.262 12.7736 160.04 12.2993C159.828 11.8149 159.505 11.4315 159.071 11.1489C158.637 10.8664 158.082 10.7251 157.406 10.7251C156.831 10.7251 156.336 10.8512 155.922 11.1035C155.509 11.3558 155.171 11.709 154.908 12.1631C154.656 12.6172 154.464 13.152 154.333 13.7676C154.212 14.373 154.151 15.0391 154.151 15.7656V16.3711C154.151 17.027 154.242 17.6325 154.424 18.1875C154.616 18.7425 154.883 19.2218 155.226 19.6255C155.579 20.0291 156.003 20.342 156.498 20.564C157.002 20.786 157.572 20.897 158.208 20.897C158.995 20.897 159.727 20.7456 160.403 20.4429C161.089 20.13 161.679 19.6608 162.174 19.0352L164.293 21.3359C163.95 21.8304 163.481 22.3047 162.885 22.7588C162.3 23.2129 161.594 23.5863 160.766 23.8789C159.939 24.1615 158.995 24.3027 157.936 24.3027ZM171.74 0.75V24H167.366V0.75H171.74ZM175.555 21.896C175.555 21.2502 175.777 20.7103 176.221 20.2764C176.675 19.8424 177.275 19.6255 178.022 19.6255C178.769 19.6255 179.364 19.8424 179.808 20.2764C180.262 20.7103 180.489 21.2502 180.489 21.896C180.489 22.5418 180.262 23.0817 179.808 23.5156C179.364 23.9495 178.769 24.1665 178.022 24.1665C177.275 24.1665 176.675 23.9495 176.221 23.5156C175.777 23.0817 175.555 22.5418 175.555 21.896ZM194.006 20.4277V0.75H198.396V24H194.445L194.006 20.4277ZM183.653 16.0078V15.6899C183.653 14.4386 183.794 13.3034 184.077 12.2842C184.359 11.2549 184.773 10.3719 185.318 9.63525C185.863 8.8986 186.534 8.32845 187.331 7.9248C188.128 7.52116 189.036 7.31934 190.056 7.31934C191.014 7.31934 191.852 7.52116 192.568 7.9248C193.295 8.32845 193.91 8.90365 194.415 9.65039C194.93 10.387 195.343 11.2599 195.656 12.269C195.969 13.2681 196.196 14.363 196.337 15.5537V16.25C196.196 17.3903 195.969 18.4499 195.656 19.4287C195.343 20.4076 194.93 21.2653 194.415 22.002C193.91 22.7285 193.295 23.2936 192.568 23.6973C191.842 24.1009 190.994 24.3027 190.025 24.3027C189.006 24.3027 188.098 24.0959 187.301 23.6821C186.514 23.2684 185.848 22.6882 185.303 21.9414C184.768 21.1947 184.359 20.3167 184.077 19.3076C183.794 18.2985 183.653 17.1986 183.653 16.0078ZM188.012 15.6899V16.0078C188.012 16.6839 188.063 17.3146 188.164 17.8999C188.275 18.4852 188.451 19.0049 188.693 19.459C188.946 19.903 189.269 20.2511 189.662 20.5034C190.066 20.7456 190.555 20.8667 191.13 20.8667C191.877 20.8667 192.493 20.7002 192.977 20.3672C193.461 20.0241 193.83 19.5549 194.082 18.9595C194.344 18.3641 194.496 17.6779 194.536 16.9009V14.918C194.506 14.2822 194.415 13.7121 194.264 13.2075C194.122 12.6929 193.91 12.2539 193.628 11.8906C193.355 11.5273 193.012 11.2448 192.599 11.043C192.195 10.8411 191.716 10.7402 191.161 10.7402C190.596 10.7402 190.111 10.8714 189.708 11.1338C189.304 11.3861 188.976 11.7342 188.724 12.1782C188.481 12.6222 188.3 13.147 188.179 13.7524C188.068 14.3478 188.012 14.9937 188.012 15.6899ZM206.403 7.62207V24H202.029V7.62207H206.403ZM201.756 3.35352C201.756 2.71777 201.978 2.19303 202.422 1.7793C202.866 1.36556 203.462 1.15869 204.208 1.15869C204.945 1.15869 205.535 1.36556 205.979 1.7793C206.434 2.19303 206.661 2.71777 206.661 3.35352C206.661 3.98926 206.434 4.514 205.979 4.92773C205.535 5.34147 204.945 5.54834 204.208 5.54834C203.462 5.54834 202.866 5.34147 202.422 4.92773C201.978 4.514 201.756 3.98926 201.756 3.35352ZM220.375 7.62207H224.325V23.4551C224.325 24.9486 223.992 26.215 223.326 27.2544C222.67 28.3039 221.752 29.096 220.571 29.6309C219.391 30.1758 218.018 30.4482 216.454 30.4482C215.768 30.4482 215.041 30.3574 214.274 30.1758C213.518 29.9941 212.791 29.7116 212.095 29.3281C211.409 28.9447 210.833 28.4603 210.369 27.875L212.292 25.3018C212.796 25.887 213.381 26.3411 214.047 26.6641C214.713 26.9971 215.45 27.1636 216.257 27.1636C217.044 27.1636 217.71 27.0173 218.255 26.7246C218.8 26.4421 219.219 26.0233 219.512 25.4683C219.804 24.9233 219.951 24.2624 219.951 23.4854V11.4062L220.375 7.62207ZM209.355 16.0078V15.6899C209.355 14.4386 209.506 13.3034 209.809 12.2842C210.122 11.2549 210.561 10.3719 211.126 9.63525C211.701 8.8986 212.397 8.32845 213.215 7.9248C214.032 7.52116 214.956 7.31934 215.985 7.31934C217.075 7.31934 217.988 7.52116 218.725 7.9248C219.461 8.32845 220.067 8.90365 220.541 9.65039C221.015 10.387 221.384 11.2599 221.646 12.269C221.918 13.2681 222.13 14.363 222.282 15.5537V16.25C222.13 17.3903 221.903 18.4499 221.601 19.4287C221.298 20.4076 220.899 21.2653 220.405 22.002C219.91 22.7285 219.295 23.2936 218.558 23.6973C217.832 24.1009 216.964 24.3027 215.955 24.3027C214.945 24.3027 214.032 24.0959 213.215 23.6821C212.408 23.2684 211.716 22.6882 211.141 21.9414C210.566 21.1947 210.122 20.3167 209.809 19.3076C209.506 18.2985 209.355 17.1986 209.355 16.0078ZM213.714 15.6899V16.0078C213.714 16.6839 213.78 17.3146 213.911 17.8999C214.042 18.4852 214.244 19.0049 214.517 19.459C214.799 19.903 215.147 20.2511 215.561 20.5034C215.985 20.7456 216.484 20.8667 217.06 20.8667C217.857 20.8667 218.508 20.7002 219.012 20.3672C219.517 20.0241 219.895 19.5549 220.147 18.9595C220.4 18.3641 220.546 17.6779 220.586 16.9009V14.918C220.566 14.2822 220.48 13.7121 220.329 13.2075C220.178 12.6929 219.966 12.2539 219.693 11.8906C219.421 11.5273 219.068 11.2448 218.634 11.043C218.2 10.8411 217.685 10.7402 217.09 10.7402C216.515 10.7402 216.015 10.8714 215.591 11.1338C215.178 11.3861 214.829 11.7342 214.547 12.1782C214.274 12.6222 214.068 13.147 213.926 13.7524C213.785 14.3478 213.714 14.9937 213.714 15.6899ZM232.317 7.62207V24H227.943V7.62207H232.317ZM227.67 3.35352C227.67 2.71777 227.892 2.19303 228.336 1.7793C228.78 1.36556 229.376 1.15869 230.123 1.15869C230.859 1.15869 231.45 1.36556 231.894 1.7793C232.348 2.19303 232.575 2.71777 232.575 3.35352C232.575 3.98926 232.348 4.514 231.894 4.92773C231.45 5.34147 230.859 5.54834 230.123 5.54834C229.376 5.54834 228.78 5.34147 228.336 4.92773C227.892 4.514 227.67 3.98926 227.67 3.35352ZM243.942 7.62207V10.71H234.406V7.62207H243.942ZM236.768 3.58057H241.127V19.0654C241.127 19.5397 241.188 19.903 241.309 20.1553C241.44 20.4076 241.632 20.5841 241.884 20.6851C242.136 20.7759 242.454 20.8213 242.837 20.8213C243.11 20.8213 243.352 20.8112 243.564 20.791C243.786 20.7607 243.973 20.7305 244.124 20.7002L244.139 23.9092C243.766 24.0303 243.362 24.1261 242.928 24.1968C242.494 24.2674 242.015 24.3027 241.49 24.3027C240.532 24.3027 239.694 24.1463 238.978 23.8335C238.271 23.5106 237.726 22.9959 237.343 22.2896C236.959 21.5832 236.768 20.6548 236.768 19.5044V3.58057ZM255.265 20.3066V13.0107C255.265 12.486 255.179 12.0369 255.007 11.6636C254.836 11.2801 254.568 10.9824 254.205 10.7705C253.852 10.5586 253.393 10.4526 252.828 10.4526C252.343 10.4526 251.924 10.5384 251.571 10.71C251.218 10.8714 250.946 11.1086 250.754 11.4214C250.562 11.7241 250.466 12.0824 250.466 12.4961H246.107C246.107 11.7998 246.268 11.1388 246.591 10.5132C246.914 9.88753 247.383 9.33757 247.999 8.86328C248.615 8.37891 249.346 8.00049 250.194 7.72803C251.052 7.45557 252.01 7.31934 253.07 7.31934C254.341 7.31934 255.472 7.53125 256.46 7.95508C257.449 8.37891 258.226 9.01465 258.792 9.8623C259.367 10.71 259.654 11.7695 259.654 13.041V20.0493C259.654 20.9474 259.71 21.6841 259.821 22.2593C259.932 22.8244 260.093 23.3188 260.305 23.7427V24H255.9C255.688 23.556 255.527 23.001 255.416 22.335C255.315 21.6589 255.265 20.9827 255.265 20.3066ZM255.84 14.0249L255.87 16.4922H253.433C252.858 16.4922 252.358 16.5578 251.935 16.689C251.511 16.8201 251.163 17.0068 250.89 17.249C250.618 17.4811 250.416 17.7536 250.285 18.0664C250.164 18.3792 250.103 18.7223 250.103 19.0957C250.103 19.4691 250.189 19.8071 250.36 20.1099C250.532 20.4025 250.779 20.6346 251.102 20.8062C251.425 20.9676 251.803 21.0483 252.237 21.0483C252.893 21.0483 253.463 20.9172 253.948 20.6548C254.432 20.3924 254.806 20.0695 255.068 19.686C255.34 19.3026 255.482 18.9393 255.492 18.5962L256.642 20.4429C256.481 20.8566 256.259 21.2855 255.976 21.7295C255.704 22.1735 255.355 22.5923 254.932 22.9858C254.508 23.3693 253.998 23.6872 253.403 23.9395C252.807 24.1816 252.101 24.3027 251.284 24.3027C250.244 24.3027 249.301 24.0959 248.453 23.6821C247.616 23.2583 246.95 22.6781 246.455 21.9414C245.971 21.1947 245.729 20.347 245.729 19.3984C245.729 18.5407 245.89 17.7788 246.213 17.1128C246.536 16.4468 247.01 15.8867 247.636 15.4326C248.271 14.9684 249.064 14.6203 250.012 14.3882C250.961 14.146 252.061 14.0249 253.312 14.0249H255.84ZM267.616 0.75V24H263.242V0.75H267.616Z" fill="black"/>
</svg>
